HIERARCHY
ROOT mixamorig:Hips
{
	OFFSET 0.000000 201.639420 0.000000
	CHANNELS 6 Xposition Yposition Zposition Xrotation Yrotation Zrotation
	JOINT mixamorig:Spine
	{
		OFFSET 0.006200 19.524994 -2.481800
		CHANNELS 3 Xrotation Yrotation Zrotation
		JOINT mixamorig:Spine1
		{
			OFFSET -0.000900 22.835007 -2.825400
			CHANNELS 3 Xrotation Yrotation Zrotation
			JOINT mixamorig:Spine2
			{
				OFFSET -0.020600 26.552490 -3.193300
				CHANNELS 3 Xrotation Yrotation Zrotation
				JOINT mixamorig:Neck
				{
					OFFSET -0.060000 30.701813 1.352200
					CHANNELS 3 Xrotation Yrotation Zrotation
					JOINT mixamorig:Head
					{
						OFFSET -0.087200 22.547607 3.670900
						CHANNELS 3 Xrotation Yrotation Zrotation
						JOINT mixamorig:HeadTop_End
						{
							OFFSET -0.830600 40.355194 7.893500
							CHANNELS 3 Xrotation Yrotation Zrotation
							End Site
							{
								OFFSET 0.000000 30.592346 0.000000
							}
						}
						JOINT mixamorig:RightEye
						{
							OFFSET -6.302100 18.118591 16.197100
							CHANNELS 3 Xrotation Yrotation Zrotation
							End Site
							{
								OFFSET 0.000000 30.592346 0.000000
							}
						}
						JOINT mixamorig:LeftEye
						{
							OFFSET 6.741500 18.382690 16.401899
							CHANNELS 3 Xrotation Yrotation Zrotation
							End Site
							{
								OFFSET 0.000000 30.592346 0.000000
							}
						}
					}
				}
				JOINT mixamorig:LeftShoulder
				{
					OFFSET 11.924900 18.230499 1.425400
					CHANNELS 3 Xrotation Yrotation Zrotation
					JOINT mixamorig:LeftArm
					{
						OFFSET 25.435989 -0.697632 -5.229300
						CHANNELS 3 Xrotation Yrotation Zrotation
						JOINT mixamorig:LeftForeArm
						{
							OFFSET 54.684776 0.000000 0.000000
							CHANNELS 3 Xrotation Yrotation Zrotation
							JOINT mixamorig:LeftHand
							{
								OFFSET 55.098175 0.000000 0.000000
								CHANNELS 3 Xrotation Yrotation Zrotation
								JOINT mixamorig:LeftHandMiddle1
								{
									OFFSET 23.369751 0.000000 0.000000
									CHANNELS 3 Xrotation Yrotation Zrotation
									JOINT mixamorig:LeftHandMiddle2
									{
										OFFSET 6.378677 0.000000 0.000000
										CHANNELS 3 Xrotation Yrotation Zrotation
										JOINT mixamorig:LeftHandMiddle3
										{
											OFFSET 6.148331 0.000000 0.000000
											CHANNELS 3 Xrotation Yrotation Zrotation
											JOINT mixamorig:LeftHandMiddle4
											{
												OFFSET 6.582504 0.000000 0.000000
												CHANNELS 3 Xrotation Yrotation Zrotation
												End Site
												{
													OFFSET -1.168900 6.395691 1.028606
												}
											}
										}
									}
								}
								JOINT mixamorig:LeftHandThumb1
								{
									OFFSET 7.235672 -3.848206 5.434273
									CHANNELS 3 Xrotation Yrotation Zrotation
									JOINT mixamorig:LeftHandThumb2
									{
										OFFSET 6.568451 -3.792297 3.792300
										CHANNELS 3 Xrotation Yrotation Zrotation
										JOINT mixamorig:LeftHandThumb3
										{
											OFFSET 6.063080 -3.500519 3.500518
											CHANNELS 3 Xrotation Yrotation Zrotation
											JOINT mixamorig:LeftHandThumb4
											{
												OFFSET 4.793182 -2.767334 2.767349
												CHANNELS 3 Xrotation Yrotation Zrotation
												End Site
												{
													OFFSET 0.101639 6.054260 1.275483
												}
											}
										}
									}
								}
								JOINT mixamorig:LeftHandIndex1
								{
									OFFSET 23.101074 -0.309540 4.992809
									CHANNELS 3 Xrotation Yrotation Zrotation
									JOINT mixamorig:LeftHandIndex2
									{
										OFFSET 6.226883 0.000000 0.000000
										CHANNELS 3 Xrotation Yrotation Zrotation
										JOINT mixamorig:LeftHandIndex3
										{
											OFFSET 6.094330 0.000000 0.000000
											CHANNELS 3 Xrotation Yrotation Zrotation
											JOINT mixamorig:LeftHandIndex4
											{
												OFFSET 5.482605 0.000000 0.000000
												CHANNELS 3 Xrotation Yrotation Zrotation
												End Site
												{
													OFFSET -1.427902 5.233032 0.797164
												}
											}
										}
									}
								}
								JOINT mixamorig:LeftHandRing1
								{
									OFFSET 22.299240 0.021149 -3.964172
									CHANNELS 3 Xrotation Yrotation Zrotation
									JOINT mixamorig:LeftHandRing2
									{
										OFFSET 6.321869 0.000000 0.000000
										CHANNELS 3 Xrotation Yrotation Zrotation
										JOINT mixamorig:LeftHandRing3
										{
											OFFSET 5.899796 0.000000 0.000000
											CHANNELS 3 Xrotation Yrotation Zrotation
											JOINT mixamorig:LeftHandRing4
											{
												OFFSET 6.517899 0.000000 0.000000
												CHANNELS 3 Xrotation Yrotation Zrotation
												End Site
												{
													OFFSET -1.637299 6.232208 0.980890
												}
											}
										}
									}
								}
								JOINT mixamorig:LeftHandPinky1
								{
									OFFSET 20.463791 -0.302338 -8.562233
									CHANNELS 3 Xrotation Yrotation Zrotation
									JOINT mixamorig:LeftHandPinky2
									{
										OFFSET 6.908646 0.000000 0.000000
										CHANNELS 3 Xrotation Yrotation Zrotation
										JOINT mixamorig:LeftHandPinky3
										{
											OFFSET 4.622849 0.000000 0.000000
											CHANNELS 3 Xrotation Yrotation Zrotation
											JOINT mixamorig:LeftHandPinky4
											{
												OFFSET 5.216080 0.000000 0.000000
												CHANNELS 3 Xrotation Yrotation Zrotation
												End Site
												{
													OFFSET -0.606308 5.116241 0.814926
												}
											}
										}
									}
								}
							}
						}
					}
				}
				JOINT mixamorig:RightShoulder
				{
					OFFSET -12.001300 18.284088 1.348900
					CHANNELS 3 Xrotation Yrotation Zrotation
					JOINT mixamorig:RightArm
					{
						OFFSET -25.308500 -0.751312 -5.164599
						CHANNELS 3 Xrotation Yrotation Zrotation
						JOINT mixamorig:RightForeArm
						{
							OFFSET -54.684429 0.000000 0.000000
							CHANNELS 3 Xrotation Yrotation Zrotation
							JOINT mixamorig:RightHand
							{
								OFFSET -55.150291 0.000000 0.000000
								CHANNELS 3 Xrotation Yrotation Zrotation
								JOINT mixamorig:RightHandMiddle1
								{
									OFFSET -23.317566 0.000000 0.000000
									CHANNELS 3 Xrotation Yrotation Zrotation
									JOINT mixamorig:RightHandMiddle2
									{
										OFFSET -6.378403 0.000000 0.000000
										CHANNELS 3 Xrotation Yrotation Zrotation
										JOINT mixamorig:RightHandMiddle3
										{
											OFFSET -6.148193 0.000000 0.000000
											CHANNELS 3 Xrotation Yrotation Zrotation
											JOINT mixamorig:RightHandMiddle4
											{
												OFFSET -6.583389 0.000000 0.000000
												CHANNELS 3 Xrotation Yrotation Zrotation
												End Site
												{
													OFFSET 1.171692 6.395905 1.029786
												}
											}
										}
									}
								}
								JOINT mixamorig:RightHandThumb1
								{
									OFFSET -7.190521 -3.860474 5.435846
									CHANNELS 3 Xrotation Yrotation Zrotation
									JOINT mixamorig:RightHandThumb2
									{
										OFFSET -6.567429 -3.791718 3.791708
										CHANNELS 3 Xrotation Yrotation Zrotation
										JOINT mixamorig:RightHandThumb3
										{
											OFFSET -6.062469 -3.500153 3.500166
											CHANNELS 3 Xrotation Yrotation Zrotation
											JOINT mixamorig:RightHandThumb4
											{
												OFFSET -4.792618 -2.767029 2.767022
												CHANNELS 3 Xrotation Yrotation Zrotation
												End Site
												{
													OFFSET -0.100327 6.053253 1.276754
												}
											}
										}
									}
								}
								JOINT mixamorig:RightHandIndex1
								{
									OFFSET -23.048981 -0.310791 4.992554
									CHANNELS 3 Xrotation Yrotation Zrotation
									JOINT mixamorig:RightHandIndex2
									{
										OFFSET -6.227539 0.000000 0.000000
										CHANNELS 3 Xrotation Yrotation Zrotation
										JOINT mixamorig:RightHandIndex3
										{
											OFFSET -6.095047 0.000000 0.000000
											CHANNELS 3 Xrotation Yrotation Zrotation
											JOINT mixamorig:RightHandIndex4
											{
												OFFSET -5.484772 0.000000 0.000000
												CHANNELS 3 Xrotation Yrotation Zrotation
												End Site
												{
													OFFSET 1.420593 5.237305 0.797056
												}
											}
										}
									}
								}
								JOINT mixamorig:RightHandRing1
								{
									OFFSET -22.246323 0.020569 -3.963762
									CHANNELS 3 Xrotation Yrotation Zrotation
									JOINT mixamorig:RightHandRing2
									{
										OFFSET -6.322128 0.000000 0.000000
										CHANNELS 3 Xrotation Yrotation Zrotation
										JOINT mixamorig:RightHandRing3
										{
											OFFSET -5.900024 0.000000 0.000000
											CHANNELS 3 Xrotation Yrotation Zrotation
											JOINT mixamorig:RightHandRing4
											{
												OFFSET -6.518356 0.000000 0.000000
												CHANNELS 3 Xrotation Yrotation Zrotation
												End Site
												{
													OFFSET 1.636398 6.232697 0.982186
												}
											}
										}
									}
								}
								JOINT mixamorig:RightHandPinky1
								{
									OFFSET -20.411011 -0.303314 -8.561701
									CHANNELS 3 Xrotation Yrotation Zrotation
									JOINT mixamorig:RightHandPinky2
									{
										OFFSET -6.907349 0.000000 0.000000
										CHANNELS 3 Xrotation Yrotation Zrotation
										JOINT mixamorig:RightHandPinky3
										{
											OFFSET -4.623840 0.000000 0.000000
											CHANNELS 3 Xrotation Yrotation Zrotation
											JOINT mixamorig:RightHandPinky4
											{
												OFFSET -5.218353 0.000000 0.000000
												CHANNELS 3 Xrotation Yrotation Zrotation
												End Site
												{
													OFFSET 0.602097 5.118835 0.816273
												}
											}
										}
									}
								}
							}
						}
					}
				}
			}
		}
	}
	JOINT mixamorig:LeftUpLeg
	{
		OFFSET 18.168400 -13.561905 -0.039000
		CHANNELS 3 Xrotation Yrotation Zrotation
		JOINT mixamorig:LeftLeg
		{
			OFFSET 0.577358 -80.825211 -3.695000
			CHANNELS 3 Xrotation Yrotation Zrotation
			JOINT mixamorig:LeftFoot
			{
				OFFSET -0.577356 -83.370262 -6.520700
				CHANNELS 3 Xrotation Yrotation Zrotation
				JOINT mixamorig:LeftToeBase
				{
					OFFSET 0.750401 -20.798306 25.135401
					CHANNELS 3 Xrotation Yrotation Zrotation
					JOINT mixamorig:LeftToe_End
					{
						OFFSET -0.000500 0.001200 19.917799
						CHANNELS 3 Xrotation Yrotation Zrotation
						End Site
						{
							OFFSET 0.000000 19.917805 0.000000
						}
					}
				}
			}
		}
	}
	JOINT mixamorig:RightUpLeg
	{
		OFFSET -18.162500 -13.585098 -0.041000
		CHANNELS 3 Xrotation Yrotation Zrotation
		JOINT mixamorig:RightLeg
		{
			OFFSET -0.595024 -80.945297 -3.631900
			CHANNELS 3 Xrotation Yrotation Zrotation
			JOINT mixamorig:RightFoot
			{
				OFFSET 0.595024 -83.218193 -6.561200
				CHANNELS 3 Xrotation Yrotation Zrotation
				JOINT mixamorig:RightToeBase
				{
					OFFSET -0.753601 -20.807106 25.115000
					CHANNELS 3 Xrotation Yrotation Zrotation
					JOINT mixamorig:RightToe_End
					{
						OFFSET 0.000299 0.001700 19.918200
						CHANNELS 3 Xrotation Yrotation Zrotation
						End Site
						{
							OFFSET 0.000000 19.918203 0.000000
						}
					}
				}
			}
		}
	}
}
MOTION
Frames: 5
Frame Time: 0.033333
8.202666 164.828369 82.838150 -2.996074 -45.783888 -0.608085 9.937529 2.646183 -0.438603 11.070120 3.805849 -1.001667 11.054747 3.870736 -0.826990 -1.329656 2.877205 -7.600181 16.799815 -0.138904 -1.982106 -0.000000 -0.000000 0.000001 -0.000000 -0.000000 0.000001 -0.000000 -0.000000 0.000001 0.451903 3.764306 -8.363975 -2.322259 -9.566665 -58.510016 0.000012 -126.569976 0.000002 12.757199 -11.703860 12.071077 6.536458 6.872585 -87.007246 6.431211 6.866521 -86.241650 3.925242 6.216699 -64.506219 0.000002 0.000000 0.000000 5.952558 16.754818 -15.297151 10.814911 25.795340 3.696132 14.796025 53.517626 4.861709 0.000002 0.000001 0.000000 6.431264 6.866522 -86.242053 6.431260 6.866513 -86.242080 4.012894 6.257506 -65.313110 -0.000002 -0.000002 -0.000001 6.372801 6.862496 -85.643831 6.507629 6.871096 -86.880546 4.055907 6.276957 -65.707021 0.000002 0.000000 -0.000000 6.941335 6.883413 -89.176972 6.403943 2.778461 -86.029887 3.770459 6.140964 -63.068218 -0.000002 0.000000 0.000001 5.876100 13.474748 3.288097 -26.358233 30.487171 52.039870 0.000009 116.686856 -0.000010 4.295862 11.030978 -15.532706 6.965529 -6.948188 90.114449 6.869441 -6.947795 89.348853 2.726357 -5.178660 50.722518 -0.000001 0.000001 -0.000001 5.737551 -11.116392 -0.220969 17.876601 -23.617471 11.218898 29.632315 -43.393930 -3.778091 -0.000001 0.000002 0.000001 6.869438 -6.947774 89.348771 6.869433 -6.947751 89.348819 2.628895 -5.447702 51.495040 -0.000002 -0.000002 0.000001 6.714862 -6.944340 87.985828 7.056409 -6.947385 90.894266 3.137984 -4.963852 52.414848 0.000001 0.000003 -0.000002 6.869436 -6.947756 89.348785 6.869448 -6.947785 89.348826 2.628892 -5.447691 51.495050 0.000001 0.000001 -0.000001 -46.120139 5.545201 28.956618 36.072281 -8.259617 7.003555 14.874555 -3.178992 -25.100570 -6.121219 0.000005 -0.000002 0.000000 -0.000000 0.000000 -17.965073 -8.363320 -30.036133 52.670471 -7.567938 -9.966820 -25.573596 -7.336275 26.239874 -2.834071 -0.000029 0.000001 -0.000000 -0.000000 -0.000001 
5.537933 166.617325 75.543350 -2.794909 -44.398084 0.686860 8.454387 2.782731 0.345520 9.642508 4.096428 -0.330005 9.595844 4.202384 -0.191860 -0.646968 2.858724 -7.994639 19.489477 -1.001302 -3.047567 -0.000000 -0.000002 0.000001 -0.000000 -0.000002 0.000001 -0.000000 -0.000002 0.000001 0.329732 4.499457 -8.737188 2.437450 -10.761685 -59.723427 -0.000016 -127.004485 -0.000007 12.924448 -12.469720 12.989930 6.536459 6.872587 -87.007253 6.431203 6.866525 -86.241650 3.925240 6.216705 -64.506219 -0.000000 0.000000 0.000001 5.952559 16.754821 -15.297153 10.814903 25.795340 3.696131 14.796032 53.517630 4.861711 0.000000 -0.000001 -0.000004 6.431262 6.866524 -86.242060 6.431263 6.866513 -86.242080 4.012892 6.257506 -65.313117 0.000004 0.000001 0.000001 6.372802 6.862496 -85.643824 6.507637 6.871099 -86.880539 4.055908 6.276958 -65.707021 -0.000003 0.000000 -0.000000 6.941332 6.883419 -89.176972 6.403938 2.778465 -86.029894 3.770457 6.140963 -63.068218 -0.000005 0.000000 -0.000000 6.030652 14.150654 3.088941 -23.719722 29.918705 49.760295 0.000023 118.283891 -0.000018 2.742752 9.240841 -15.084965 6.965530 -6.948188 90.114449 6.869446 -6.947791 89.348853 2.726356 -5.178658 50.722511 0.000003 -0.000001 -0.000000 5.737558 -11.116386 -0.220969 17.876599 -23.617473 11.218899 29.632318 -43.393933 -3.778090 -0.000001 0.000004 0.000001 6.869438 -6.947773 89.348771 6.869434 -6.947749 89.348819 2.628891 -5.447701 51.495036 -0.000001 -0.000000 0.000001 6.714862 -6.944342 87.985828 7.056407 -6.947388 90.894266 3.137980 -4.963849 52.414851 -0.000000 -0.000002 0.000002 6.869438 -6.947763 89.348778 6.869451 -6.947784 89.348819 2.628890 -5.447697 51.495050 -0.000002 -0.000002 0.000000 -42.666037 8.152060 28.211277 24.796505 -8.496413 6.052897 22.113077 -5.131111 -22.225743 -5.533337 0.000005 0.000003 -0.000000 0.000001 0.000000 -17.463267 -9.823757 -31.203214 51.177617 -4.672024 -7.426458 -25.282265 -8.816096 32.102364 -2.119038 -0.000019 0.000009 0.000000 0.000000 0.000000 
3.452597 168.522644 67.992226 -2.078292 -42.369675 2.120161 7.161806 2.821067 0.923266 8.293172 4.245976 0.181821 8.221961 4.372735 0.290021 -0.194238 2.727714 -8.175210 21.799247 -2.158471 -3.677503 -0.000003 -0.000000 -0.000001 -0.000003 -0.000000 -0.000001 -0.000003 -0.000000 -0.000001 0.310347 4.582911 -8.677560 5.290487 -11.347488 -60.142268 0.000019 -128.039409 0.000002 13.182352 -13.116666 13.652225 6.536455 6.872582 -87.007253 6.431212 6.866525 -86.241650 3.925239 6.216705 -64.506219 -0.000001 -0.000000 0.000000 5.952560 16.754816 -15.297151 10.814910 25.795338 3.696133 14.796025 53.517623 4.861709 0.000002 0.000001 -0.000004 6.431267 6.866518 -86.242053 6.431261 6.866516 -86.242080 4.012894 6.257509 -65.313117 0.000001 0.000001 -0.000000 6.372803 6.862490 -85.643824 6.507636 6.871098 -86.880539 4.055907 6.276961 -65.707014 -0.000000 -0.000001 0.000001 6.941328 6.883418 -89.176972 6.403937 2.778462 -86.029887 3.770458 6.140964 -63.068218 0.000003 -0.000000 -0.000000 6.072585 14.458375 2.912804 -22.037180 29.369223 47.384451 -0.000001 120.059877 -0.000008 1.854460 8.224115 -14.826329 6.965528 -6.948188 90.114449 6.869446 -6.947795 89.348853 2.726358 -5.178658 50.722515 0.000003 -0.000000 -0.000001 5.737556 -11.116386 -0.220969 17.876599 -23.617474 11.218898 29.632308 -43.393923 -3.778084 0.000002 -0.000001 -0.000001 6.869444 -6.947772 89.348778 6.869431 -6.947753 89.348819 2.628892 -5.447699 51.495040 -0.000000 0.000000 -0.000005 6.714865 -6.944337 87.985828 7.056403 -6.947387 90.894266 3.137981 -4.963852 52.414851 0.000002 0.000002 0.000001 6.869440 -6.947758 89.348785 6.869445 -6.947787 89.348826 2.628886 -5.447694 51.495047 0.000002 0.000001 0.000002 -39.871383 9.941669 26.441307 16.355591 -8.861773 4.896324 25.722458 -8.526476 -18.867713 -2.861274 0.025636 -1.552086 0.000000 0.000000 0.000000 -19.755400 -10.988347 -32.097193 53.525467 -3.796123 -4.720704 -26.886153 -8.254380 28.950993 -1.453668 -0.000020 0.000002 -0.000000 0.000000 0.000000 
2.045670 171.197067 60.623566 -1.795175 -40.342741 2.711536 6.605397 2.818484 1.249587 7.612874 4.254724 0.490809 7.532702 4.380588 0.590895 -0.261998 2.571192 -8.135093 23.686227 -3.291373 -4.025194 0.000001 -0.000001 -0.000001 0.000001 -0.000001 -0.000001 0.000001 -0.000001 -0.000001 0.436671 3.844266 -8.367112 5.132873 -11.379248 -59.957053 0.000011 -128.521976 0.000005 13.815731 -13.503952 14.262470 6.536452 6.872586 -87.007246 6.431204 6.866524 -86.241650 3.925242 6.216702 -64.506219 0.000004 -0.000000 -0.000000 5.952559 16.754823 -15.297150 10.814916 25.795347 3.696134 14.796029 53.517623 4.861716 0.000002 0.000001 0.000001 6.431263 6.866525 -86.242060 6.431263 6.866517 -86.242080 4.012894 6.257509 -65.313110 0.000001 0.000000 -0.000001 6.372802 6.862496 -85.643831 6.507636 6.871099 -86.880539 4.055904 6.276965 -65.707014 0.000004 0.000000 -0.000001 6.941333 6.883415 -89.176972 6.403937 2.778460 -86.029880 3.770459 6.140965 -63.068218 -0.000001 -0.000001 0.000001 5.971579 14.354863 2.718922 -21.745581 28.897096 45.412671 0.000004 121.369497 0.000008 1.853362 8.511585 -14.470510 6.965530 -6.948190 90.114449 6.869447 -6.947795 89.348853 2.726356 -5.178659 50.722515 0.000000 0.000001 -0.000002 5.737553 -11.116390 -0.220970 17.876598 -23.617476 11.218904 29.632315 -43.393930 -3.778086 0.000000 -0.000001 -0.000000 6.869439 -6.947772 89.348771 6.869432 -6.947750 89.348819 2.628893 -5.447702 51.495043 -0.000001 0.000003 -0.000001 6.714861 -6.944340 87.985828 7.056405 -6.947388 90.894266 3.137981 -4.963851 52.414848 0.000001 0.000002 0.000000 6.869439 -6.947758 89.348785 6.869444 -6.947785 89.348826 2.628890 -5.447703 51.495050 0.000001 0.000000 0.000001 -38.843289 10.482778 24.618017 16.184133 -9.195669 4.060291 23.048661 -11.419141 -18.774472 -1.976032 0.074184 -2.643132 -0.000000 -0.000001 0.000000 -21.228148 -12.423012 -32.212839 54.431202 -3.299616 -1.935567 -27.523813 -7.405932 25.024859 -0.948473 -0.000000 0.000002 -0.000000 -0.000000 0.000000 
1.056437 174.726639 53.793095 -2.046754 -38.771255 2.416481 6.699363 2.783178 1.297827 7.613831 4.155371 0.595451 7.540771 4.266237 0.701915 -0.673100 2.433473 -7.951295 25.052111 -4.162102 -4.174513 -0.000000 -0.000000 -0.000001 -0.000000 -0.000000 -0.000001 -0.000000 -0.000000 -0.000001 0.673602 2.524033 -8.096950 2.587692 -11.257370 -59.511479 0.000010 -128.496376 0.000005 14.512986 -13.109182 14.503196 6.536454 6.872589 -87.007253 6.431205 6.866525 -86.241650 3.925243 6.216699 -64.506219 0.000001 0.000000 -0.000000 5.952558 16.754821 -15.297151 10.814911 25.795340 3.696130 14.796027 53.517630 4.861712 0.000000 -0.000001 -0.000001 6.431264 6.866521 -86.242053 6.431263 6.866511 -86.242080 4.012896 6.257505 -65.313110 0.000000 -0.000001 -0.000001 6.372805 6.862493 -85.643824 6.507632 6.871101 -86.880532 4.055907 6.276955 -65.707021 0.000001 0.000000 -0.000000 6.941330 6.883419 -89.176965 6.403941 2.778464 -86.029887 3.770457 6.140963 -63.068218 -0.000003 0.000000 0.000001 5.837454 14.083661 2.585752 -22.414091 28.411616 44.618808 -0.000040 122.011412 0.000052 2.354010 9.313990 -14.203053 6.965529 -6.948190 90.114456 6.869447 -6.947793 89.348853 2.726357 -5.178661 50.722518 -0.000004 -0.000001 -0.000003 5.737555 -11.116389 -0.220966 17.876603 -23.617474 11.218899 29.632308 -43.393927 -3.778087 -0.000002 0.000001 0.000001 6.869442 -6.947774 89.348778 6.869433 -6.947749 89.348819 2.628889 -5.447702 51.495040 -0.000000 0.000002 -0.000002 6.714862 -6.944344 87.985828 7.056412 -6.947386 90.894266 3.137981 -4.963849 52.414848 0.000001 0.000001 0.000000 6.869438 -6.947764 89.348785 6.869441 -6.947787 89.348826 2.628891 -5.447702 51.495047 -0.000001 0.000001 -0.000001 -39.383646 10.286047 23.378658 23.918450 -9.281693 2.891946 16.347668 -10.224384 -20.214459 -3.145297 -0.022532 0.460031 -0.000000 -0.000002 0.000000 -21.122015 -13.680365 -30.737450 53.312864 -4.431394 0.297558 -26.768637 -6.441690 21.882651 -0.630927 -0.000010 0.000001 -0.000000 -0.000000 -0.000000 
